<svg xmlns="http://www.w3.org/2000/svg" viewBox="440.05149490254877 193.92000000000002 1097.0343328335832 1251.2" version="1.1" style="max-height: 500px" width="1097.0343328335832" height="1251.2">
<defs>
<clipPath id="a">
<path d="m0 1200h1600v-1200h-1600z"/>
</clipPath>
</defs>
<g transform="matrix(1.3333 0 0 -1.3333 0 1600)">
<g clip-path="url(#a)">
<g transform="translate(1064.7 571.57)">
<path d="m0 0c0.34-0.032 0.68-0.063 1.02-0.095 1.592 4.746 4.052 9.301 2.606 14.726-1.209-4.877-2.418-9.754-3.626-14.631m-92.069-67.081c-2.946-4.049-4.028-8.798-5.701-13.3-0.196-0.528-0.229-1.152 0.348-1.385 1.047-0.425 2.096-1e-3 3.089 0.324 0.594 0.194 0.75 0.787 0.339 1.28-1.323 1.593-0.281 3.001 0.285 4.445 1.087 2.77 1.546 5.667 1.64 8.636m-197.42-329.3c7.225-0.593 10.18 2.379 8.226 8.064-2.896-2.472-6.303-4.476-8.226-8.064m-216.8 366.09c-0.713-2.444-1.408-4.448-1.841-6.508-0.162-0.768-0.831-2.454 1.143-2.078 2.231 0.425 5.364 0.472 6.138 2.413 0.669 1.677-2.06 3.292-3.519 4.743-0.509 0.506-1.159 0.871-1.921 1.43m388.01 419.7c-0.334-1.835 0.349-2.901 0.971-4.022 3.251-5.866 8.853-9.439 13.525-13.913 0.616-0.59 1.424-1.404 2.486-1.009 0.236 0.088 0.432 0.782 0.351 1.127-0.261 1.102-0.352 2.444-1.815 2.676-0.859 0.137-1.789 0.113-2.319 0.874-2.216 3.177-5.414 5.409-7.914 8.309-1.733 2.011-3.521 3.974-5.285 5.958m-15.028 2.114c0.655-9.308 15.264-26.906 23.456-28.164-10.247 7.38-18.111 16.708-23.456 28.164m116.2-452.04c6.702 6.865 10.247 14.42 6.635 24.819-2.44-8.647-4.955-16.443-6.635-24.819m-391.74-187.68c-0.224-0.142-0.523-0.274-0.749-0.484-2.188-2.026-4.897-3.259-7.378-4.834-4.648-2.952-4.658-3.083-0.147-6.459 1.189-0.89 2.299-1.883 3.459-2.812 1.149-0.922 1.649-0.683 2.178 0.79 1.495 4.161 1.283 8.773 3.467 12.743 0.299 0.543-0.093 0.997-0.83 1.056m422.93 305.66c2.428 2.883 3.496 5.77 5.062 8.335 1.577 2.584 1.901 5.188 0.969 8.203-1.555 5.027-1.345 10.466-1.056 15.487 0.462 8.053 1.55 16.364 7.059 23.176-0.945 0.468-1.579 0.858-2.264 1.106-1.627 0.587-6.098-0.444-6.237-1.481-0.777-5.813-1.344-11.684-0.429-17.491 0.884-5.615 0.188-11.151-0.253-16.678-0.378-4.741-1.16-9.467-2.451-14.119-0.47-1.694-0.594-3.831-0.4-6.538m-159.22-229.88c9.652-5.671 18.271-11.463 26.195-18.247 1.596-1.366 1.916 0.163 2.143 1.338 0.922 4.772 1.746 9.551 2.326 14.387 0.284 2.365-0.211 2.889-2.336 2.445-3.372-0.704-6.73-0.112-10.108 0.016-5.802 0.221-11.619 0.061-18.22 0.061m-142.39 22.015c-4.439 1.973-8.013 3.714-11.702 5.164-4.397 1.728-8.636 3.665-13.498 4.389-5.53 0.823-10.662 3.277-13.868 8.543-1.842 3.024-3.292 3.016-6.061 1.077-1.486-1.041-2.767-2.362-4.284-3.279-2.556-1.544-1.051-1.924 0.463-2.695 9.504-4.838 18.871-9.921 27.588-16.105 0.812-0.577 1.53-1.205 2.591-0.807 5.804 2.181 11.767 3.66 18.771 3.713m-188.49 89.936c-1.484 1.848-2.982 3.756-4.528 5.625-1.337 1.615-3.121 2.254-5.126 1.767-4.761-1.156-9.517-2.178-14.451-2.402-1.51-0.069-3.353-0.921-3.718 0.94-0.333 1.699 1.514 2.629 3.109 3.008 2.483 0.591 5.027 0.928 7.499 1.556 1.803 0.457 4.413 0.213 5.011 2.177 0.552 1.812-2.072 2.379-3.119 3.652-0.265 0.322-0.827 0.459-0.98 0.802-0.723 1.617-1.614 1.36-3.139 0.897-5.183-1.575-10.382-2.87-15.985-1.744-2.498 0.502-3.398 2.023-3.446 3.756-0.077 2.797-0.611 5.622 0.244 8.472 1.345 4.491 2.364 9.075-2.642 12.268-0.682 0.435-1.01 1.67-2.007 1.289-1.011-0.387-1.008-1.547-1.126-2.487-0.783-6.223-2.382-12.283-3.879-18.346-1.453-5.885 0.098-9.92 5.373-12.459 0.969-0.466 2.096-1.013 2.33-2.084 0.897-4.107 3.348-7.575 4.51-11.611 0.976-3.385 2.205-7.078 5.26-9.255 4.738-3.375 10.191-4.355 15.983-3.84 6.94 0.618 13.551 2.671 20.169 4.597 2.655 0.773 5.725 0.732 7.947 2.853-1.437 1.575-2.733 3.106-4.155 4.508-0.732 0.723-1.515 1.224-2.831 0.778-6.438-2.178-13.176-2.385-19.882-2.655-0.966-0.039-2.397-0.116-2.761 1.072-0.321 1.05 0.562 1.978 1.296 2.77 0.714 0.771 1.708 0.734 2.632 0.981 4.354 1.164 8.902 1.648 12.412 3.115m401.07 423.81c-13.653 1.026-24.367-3.586-32.912-13.187-2.602-2.924-5.68-5.756-7.036-9.428-3.853-10.438-1.99-20.292 4.154-29.419 7.329-10.888 18.301-12.054 28.875-10.312 5.571 0.918 10.595 3.936 15.252 7.182 8.303 5.786 14.55 13.101 14.258 23.854-0.206 7.591-1.029 15.389-4.769 22.107-2.008 3.607-4.133 8.197-8.978 9.096-3.085 0.572-6.362 0.107-8.844 0.107m118.88-349.16c0.048-2.316 0.18-4.458-0.937-6.813-0.865-1.821-1.914-3.76-2.428-5.669-1.383-5.134-4.732-9.192-7.199-13.653-1.926-3.482-3.01-6.855-3.374-10.625-0.476-4.933 1.246-9.656 1.462-14.56 0.45-10.191-1.397-19.506-7.975-27.667-2.186-2.711-4.693-5.709-3.479-9.694 1.298-4.259 2.249-8.53 2.72-12.985 0.612-5.779 0.303-11.419-0.927-17.055-0.398-1.828-2.484-2.561-2.733-4.587-0.382-3.106-1.807-5.829-3.795-8.259-5.409-6.61-7.33-14.378-4.411-22.177 2.32-6.198 1.721-12.465 2.843-18.632 0.141-0.775-0.183-1.701-0.488-2.481-2.68-6.856-5.69-13.602-7.987-20.583-1.039-3.16-1.532-6.561-0.931-10.225 1.249-7.599 4.754-14.952 0.769-23.185-1.974-4.078-3.157-8.875-4.865-13.279-1.341-3.456-3.286-6.69-4.468-10.19-0.563-1.668-1.031-3.015-2.731-3.533-1.774-0.541-1.958-1.477-1.272-3.081 2.516-5.891 2.071-12.015 1.703-18.244-0.248-4.205-2.821-7.145-4.292-10.654-1.033-2.464-0.995-5.604-2.585-7.358-2.353-2.596-2.452-5.75-3.801-8.493-2.41-4.899-2.352-10.249-2.586-15.217-0.152-3.224 0.055-6.413-0.855-9.629-0.477-1.687-1.136-2.978-2.791-3.6-1.092-0.411-2.213-0.75-3.33-1.092-1.063-0.326-2.125-0.672-1.938-2.091 0.143-1.088-0.647-2.582 0.689-3.157 1.01-0.434 2.352-0.342 3.327 0.526 1.204 1.073 2.62 1.841 3.898 2.785 2.995 2.213 5.678 4.614 7.207 8.32 2.223 5.384 4.17 10.742 5.32 16.509 1.175 5.895 3.456 11.564 5.169 17.357 0.963 3.255 2.283 6.526 2.496 9.851 0.267 4.151 0.792 8.099 2.053 12.103 1.845 5.852 2.711 11.972 3.403 18.083 0.277 2.45 1.521 4.589 1.87 7.079 0.703 5.016 1.428 9.99 1.762 15.07 0.317 4.823 1.822 9.566 2.776 14.35 1.167 5.855 1.596 11.832 2.296 17.732 0.876 7.378 2.067 14.705 3.019 22.067 1.333 10.306 4.164 20.39 4.855 30.785 0.226 3.413 1.654 6.539 2.011 9.741 0.767 6.889 2.322 13.626 3.243 20.475 0.547 4.071 2.39 8.029 2.545 12.08 0.303 7.945 3.931 15.17 4.357 23.055 0.099 1.823-0.07 3.76 0.874 5.605 2.181 4.262 1.534 9.185 3.143 13.772 1.518 4.325 1.459 9.367 2.98 13.931 0.334 1 0.319 2.125 0.708 3.095 1.353 3.371-0.426 7.171 1.088 10.301 1.441 2.979 1.837 6.095 2.552 9.177 0.351 1.514-0.174 3.201 0.594 4.68 1.35 2.604 1.31 5.595 1.53 8.288 0.496 6.093 2.005 11.998 3.947 17.566 3.296 9.451 6.552 18.83 7.724 28.804 0.627 5.332 1.766 10.719 3.5 15.595 2.634 7.41 2.902 14.859 3.37 22.422 0.044 0.709 0.217 1.657-0.748 1.876-0.807 0.183-1.308-0.542-1.848-1.072-2.358-2.317-4.087-5.157-6.369-7.569-1.223-1.293-1.981-3.434-1.605-5.655 1.687-9.966 0.406-19.179-6.071-27.504-2.747-3.532-4.973-7.713-5.407-12.425-0.626-6.806-0.051-13.599 0.423-20.387m-296.59 180.92c-3.522-2.093-4.635-5.369-6.442-8.042-4.39-6.494-8.212-13.321-11.716-20.365-2.041-4.101-4.137-8.151-5.909-12.389-3.737-8.942-7.236-17.961-10.439-27.114-3.115-8.903-6.749-17.625-10.17-26.421-1.183-3.04-2.41-6.063-3.614-9.096-1.941-4.886-4.021-9.723-5.777-14.675-1.633-4.603-2.575-9.472-4.443-13.966-2.525-6.07-4.307-12.404-6.676-18.528-2.292-5.922-4.165-12.197-5.712-18.476-2.043-8.293-5.746-16.043-8.209-24.208-0.612-2.029-0.625-3.607 1.061-5.401 3.719-3.958 7.391-7.979 10.453-12.528 1.415-2.103 3.43-3.806 5.202-5.662 1.057-1.107 2.082-0.985 2.077 0.619-9e-3 2.813 1.739 5.051 2.215 7.612 1.916 10.314 6.843 19.656 9.235 29.845 2.221 9.46 6.607 18.314 8.907 27.799 1.47 6.065 3.209 12.046 3.5 18.387 0.241 5.263 0.185 10.607 1.589 15.776 0.108 0.398 0.126 0.85 0.063 1.259-0.647 4.233-5e-3 8.509 0.703 12.557 1.602 9.16 3.616 18.248 6.532 27.157 2.926 8.939 7.095 17.246 11.166 25.637 0.555 1.142 1.358 2.225 1.637 3.43 1.822 7.87 5.012 15.259 7.969 22.719 3.04 7.67 5.004 15.603 6.798 24.074m65.52 268.26c6.1-0.524 11.532-0.783 16.905-1.49 15.274-2.009 27.437-10.348 38.485-20.216 10.28-9.182 18.896-19.722 24.692-32.608 5.937-13.195 10.876-26.527 12.33-40.985 0.196-1.945 0.663-2.716 2.786-1.956 7.883 2.822 16.06 2.836 24.278 2.282 0.785-0.053 1.502-0.484 1.641 1.044 0.372 4.102-0.032 8.226-0.338 12.232-0.502 6.549-2.538 12.885-4.635 19.2-3.287 9.9-7.326 19.294-13.646 27.649-4.295 5.677-8.546 11.282-13.968 16.081-6.677 5.909-14.103 10.462-22.042 14.202-3.682 1.735-7.612 3.087-11.474 4.454-5.388 1.908-10.862 4.216-16.454 4.761-8.359 0.813-16.88 0.655-25.262-0.508-4.36-0.605-8.961-0.709-13.298-4.142m152.12-758.04c0.743 0.129 0.946 0.547 1.036 1.109 0.152 0.942 0.26 1.901 0.519 2.815 2.795 9.846 7.943 18.72 11.676 28.178 1.701 4.31 2.131 9.132 0.338 13.085-1.096 2.413-1.671 4.823-2.418 7.251-1.803 5.865-0.682 11.27 2.409 16.482 3.45 5.815 7.723 11.126 9.583 17.91 0.843 3.08 1.713 5.834 0.764 8.962-0.921 3.033-1.744 6.097-2.536 9.167-0.526 2.044-1.623 4.092-1.113 6.214 1.595 6.645 3.83 13.09 7.726 18.77 5.183 7.556 8.448 15.17 4.187 24.491-1.939 4.241-1.99 9.106-1.08 13.811 1.38 7.143 4.848 13.366 8.554 19.494 2.041 3.376 4.308 6.904 4.557 10.784 0.389 6.071-0.542 12.153-2.62 17.955-1.52 4.244-1.801 8.739 0.137 12.61 2.555 5.102 4.717 10.531 8.792 14.802 1.731 1.814 3.036 4.288 2.519 6.698-0.663 3.094-0.788 6.244-1.501 9.343-1.183 5.138-2.398 10.392-1.298 15.77 1.991 9.725 6.743 18.122 12.699 25.878 2.393 3.115 3.793 6.401 3.476 10.333-0.27 3.341 0.2 6.664-0.488 10.057-0.927 4.567 1.048 9.008 1.624 13.522 0.334 2.608 1.34 4.775 2.877 6.918 2.047 2.854 4.145 5.842 5.321 9.097 1.044 2.889 1.214 6.157 1.419 9.34 0.348 5.402 0.023 10.885 1.322 16.194 1.86 7.592 4.173 15.012 9.291 21.195 0.631 0.763 1.053 1.439-0.166 2.349-2.609 1.946-5.671 2.236-8.67 2.798-0.732 0.138-1.353-0.122-1.763-0.995-3.241-6.896-6.148-13.872-6.396-21.655-0.189-5.901-0.434-11.8-0.693-17.699-0.056-1.26-0.05-2.494-0.405-3.78-1.557-5.649-5.557-9.903-8.304-14.863-4.397-7.939-6.968-16.069-5.843-25.363 0.625-5.17 1.909-10.449 0.614-15.73-1.669-6.809-5.724-12.567-9.123-18.459-2.772-4.805-3.788-9.835-4.918-14.894-1.596-7.15 1.301-14.345 0.578-21.618-0.205-2.07-0.201-4.142-1.412-5.755-2.113-2.815-3.722-5.894-5.479-8.912-4.222-7.25-6.358-14.948-4.149-23.174 1.935-7.208 0.82-13.796-2.074-20.429-2.66-6.099-7.06-11.378-8.136-18.241-0.918-5.851-1.992-11.791 0.696-17.26 3.491-7.104 1.809-13.661-1.199-20.108-1.441-3.086-4.426-5.463-5.479-8.736-1.282-3.99-2.522-8.05-3.675-12.071-1.471-5.135-0.405-9.641 1.158-13.951 1.492-4.113 1.716-8.082 1.604-12.234-0.036-1.348-1.081-2.63-0.353-4.041 0.915-1.772 0.24-3.248-0.666-4.798-2.869-4.906-5.685-9.744-7.664-15.217-1.534-4.244-1.931-8.542-1.838-12.558 0.108-4.717 1.47-9.512 2.068-14.342 0.525-4.247-0.72-7.742-2.719-10.719-2.716-4.045-3.404-8.903-6.151-12.864-0.694-1.001-1.028-2.063-2.387-2.168-1.91-0.147-1.392-0.949-0.691-2.058 1.592-2.515 3.841-4.604 4.841-7.511 0.155-0.451 0.665-0.781 1.022-1.179m-641.32 4.625c1.122-2.867 3.164-4.643 5.457-6.277 8.049-5.736 16.8-10.236 25.915-13.883 15.769-6.311 31.272-13.182 46.558-20.568 8.451-4.082 17.232-7.416 25.819-11.191 6.946-3.055 14.315-5.061 21.26-8.342 8.561-4.044 17.545-7.263 26.51-10.364 11.288-3.905 22.414-8.244 33.764-11.999 14.397-4.763 28.365-10.857 43.155-14.404 5.985-1.436 11.541-4.571 17.908-4.497 1.149 0.013 2.428-0.068 3.433-0.552 4.731-2.28 10.026-2.495 14.98-4.068 6.645-2.11 13.487-4.058 20.502-5.307 6.318-1.125 12.71-2.416 19.007-4.005 8.54-2.155 17.044-4.704 26.126-4.902 4.663-0.102 8.268 1.5 12.281 2.774-1.759 0.697-3.807 0.689-5.16 1.655-4.572 3.265-9.637 3.771-14.956 3.465-1.016-0.059-1.999 0.149-2.602 0.972-1.628 2.224-4.342 2.815-6.383 4.404-2.954 2.298-6.888 2.589-9.861 5.088-1.547 1.3-4.015 1.887-6.351 1.647-10.599-1.088-21.143-2.19-31.859-0.592-6.23 0.929-11.912 3.052-17.464 5.639-6.351 2.96-11.171 8.09-16.451 12.547-3.257 2.75-6.11 5.976-10.986 6.177-11.493 0.473-22.97 1.324-34.459 1.915-3.643 0.187-7.307-0.023-10.218 2.796-0.334 0.324-1.003 0.304-1.519 0.438-6.555 1.706-12.162 5.003-16.734 10.015-1.207 1.323-2.034 2.946-3.579 4.016-2.401 1.665-4.84 3.329-6.982 5.299-3.164 2.91-6.732 4.272-11.02 4.311-5.392 0.049-10.781 0.144-16.163 0.868-4.064 0.546-7.841 2.277-11.835 2.699-4.501 0.474-8.093 2.816-11.482 5.148-4.235 2.913-7.767 6.842-11.638 10.292-4.056 3.615-8.504 6.982-14.094 6.932-8.116-0.072-16.171-0.313-24.21 1.274-2.191 0.433-4.026 0.761-6.055 2.063-3.449 2.213-7.23 3.296-10.219 6.881-2.531 3.036-5.702 5.683-8.202 8.991-1.212 1.603-2.049 4.606-5.286 4.027-5.473-0.979-11.034-0.925-16.907-1.382m360.71-98.662c8.629-0.688 15.281 3.798 21.409 9.451 2.508 2.313 4.588 5.43 7.97 6.303 4.289 1.107 4.913 4.301 5.019 7.654 0.034 1.057 1.208 3.7-1.238 3.732-2.67 0.035-5.723-0.037-7.603-2.482-3.904-5.077-8.853-8.963-13.95-12.697-1.379-1.01-2.959-1.828-4.658-2.037-9.425-1.161-18.847-2.98-28.091 1.292-4.422 2.045-9.26 3.387-12.667 7.052-3.579 3.85-7.518 6.98-12.576 8.588-0.481 0.153-0.89 0.587-1.285 0.942-4.261 3.839-9.51 5.204-14.759 3.814-7.646-2.024-15.287-1.151-22.924-1.207-4.68-0.034-8.845 2.732-13.441 3.518-0.556 0.095-1.181 0.638-1.498 1.146-2.892 4.627-8.451 6.661-11.096 11.542-1.667 3.075-5.231 3.368-7.866 5.031-3.625 2.289-7.566 3.195-11.588 1.89-3.933-1.276-7.966-1.381-11.957-1.987-2.208-0.335-4.474-1.232-6.641-0.519-7.104 2.337-14.826 1.768-21.778 5.189-3.279 1.613-5.152 5.191-8.991 5.728-0.138 0.019-0.286 0.324-0.341 0.521-0.547 1.97-2.278 2.728-3.781 3.715-0.884 0.581-2.035 0.932-2.325 2.084-0.741 2.933-3.324 3.792-5.593 4.831-1.462 0.669-2.702 1.433-3.992 2.419-3.95 3.021-8.321 5.532-13.575 4.005-9.383-2.727-18.479-0.057-27.66 1.143-0.713 0.093-1.475 0.426-2.05 0.863-3.897 2.961-8.3 5.014-11.991 8.54-4.154 3.969-8.173 7.822-11.108 12.764-0.255 0.43-0.759 0.762-1.216 1.013-6.241 3.431-12.841 4.639-19.94 3.596-5.429-0.797-10.838 0.617-16.273 0.671-0.613 6e-3 -1.308 0.238-1.819 0.583-3.464 2.336-7.905 2.739-10.923 6.243-1.293 1.501-3.401 2.688-5.089 4.134-2.57 2.204-4.956 5.297-7.749 6.42-5.625 2.261-11.698 4.202-17.996 3.416-2.605-0.325-5.061-0.227-7.619 0.153-4.881 0.725-9.431 2.632-14.119 3.975-2.798 0.801-2.716-0.178-2.516-1.995 0.345-3.124 2.396-5.854 2.07-9.186-0.102-1.044 0.997-1.471 2.012-1.729 1.023-0.26 2.073-0.592 2.973-1.125 4.767-2.823 9.797-4.623 15.433-4.359 0.619 0.03 1.341-0.04 1.862-0.334 6.954-3.933 14.5-6.76 21.028-11.505 9.039-6.57 18.992-10.907 30.291-11.683 8.644-0.594 16.868-2.548 24.061-7.655 4.351-3.09 8.609-6.312 12.929-9.448 4.135-3.002 7.851-6.678 12.876-8.279 7.786-2.481 15.93-2.745 23.952-3.262 9.7-0.626 18.359-4.025 26.336-8.98 8.016-4.979 15.243-10.842 24.772-13.496 9.525-2.652 18.86-4.56 28.751-4.143 3.102 0.13 6.445 0.573 9.45-0.682 4.705-1.965 9.607-3.374 14.023-6.166 6.093-3.854 11.463-8.721 18.407-11.463 5.631-2.223 11.003-3.861 17.133-4.117 4.217-0.176 8.132 1.174 12.24 0.927 2.956-0.177 5.993-0.742 8.862-0.294 6.746 1.051 12.877-0.197 18.176-4.334 3.483-2.72 7.55-4.077 11.528-4.231 6.115-0.236 11.764-1.784 17.424-3.677 3.586-1.198 7.242-1.882 11.295-1.816m-356.05 153.34c-2.43 0-4.248 0.015-6.066-5e-3 -1.051-0.012-2.268 0.194-2.767-1.08-0.529-1.354 0.345-2.229 1.31-2.971 3.392-2.604 7.274-4.051 11.49-4.427 5.845-0.523 11.569 2.099 17.564 0.398 3.553-1.009 7.441-1.372 10.693-2.969 5.639-2.768 10.695-6.569 15.252-10.998 5.446-5.292 11.438-9.644 19.415-10.25 5.293-0.403 10.544 0.09 15.796 0.538 7.659 0.654 14.475-1.069 20.587-6.01 4.626-3.741 8.483-8.128 12.265-12.628 2.549-3.033 5.545-5.645 9.462-6.181 5.22-0.715 10.544-2.348 15.803-0.737 4.78 1.464 9.796 1.914 14.498 1.545 7.811-0.614 14.279-5.264 20.338-9.957 3.526-2.73 6.513-6.174 9.635-9.401 8.266-8.544 18.461-11.077 29.964-10.038 7.01 0.634 13.838 2.365 21.153 0.757 5.306-1.166 10.001-3.33 14.099-6.212 4.553-3.203 8.673-7.254 12.324-11.644 1.861-2.238 4.503-4.009 7.181-4.633 6.837-1.593 13.854-2.036 20.744-0.055 3.791 1.09 7.754 1.181 11.544 1.424 9.803 0.627 17.668-4.312 24.277-11.023 3.366-3.42 7.117-5.882 11.567-7.237 5.759-1.753 11.484-2.473 17.746-2.105 5.512 0.323 8.981 1.635 12.48 5.748 4.935 5.802 11.027 10.175 19.429 8.723 2.437-0.421 2.674 0.778 1.923 2.51-1.333 3.075-2.633 6.195-4.319 9.079-3.513 6.007-8.216 10.314-15.787 10.349-5.858 0.027-11.66 0.493-17.459 1.716-5.237 1.103-10.514 2.609-15.801 2.877-4.936 0.251-9.212 3.496-14.293 2.504-0.602-0.117-1.423 0.817-2.122 1.293-2.517 1.714-5.901 2.98-8.263 2.259-5.622-1.716-11.314-3.048-17.01-4.404-6.563-1.561-13.2-1.444-19.658 0.271-4.334 1.151-8.514 2.987-12.632 4.812-3.633 1.609-7.696 0.735-11.23 2.135-8.357 3.311-17.005 5.715-25.568 8.331-7.994 2.442-16.048 4.762-24.264 6.512-4.931 1.05-9.538 4.166-14.449 4.613-4.931 0.449-9.213 2.42-13.849 3.403-2.347 0.498-4.093 2.187-6.44 2.642-5.136 0.996-10.091 2.895-14.889 4.737-8.271 3.176-17.075 4.621-25.14 8.315-0.553 0.253-1.255 0.197-1.89 0.248-3.496 0.281-6.794 1.372-9.851 2.955-4.54 2.351-9.325 4.093-14.01 6.081-7.392 3.137-15.449 4.626-22.333 9.039-0.703 0.45-1.596 0.594-2.375 0.938-4.653 2.056-9.752 3.132-14.073 5.863-3.692 2.335-7.898 3.889-11.783 5.165-7.422 2.438-13.883 6.776-21.211 9.266-2.451 0.832-4.83 1.354-7.155 0.761-7.388-1.884-14.916-2.326-21.852-2.842m650.35 158.14c-1.53-2.3-2.139-4.861-2.85-7.411-2.022-7.247-3.116-14.698-5.119-21.961-2.225-8.072-3.848-16.312-5.706-24.484-1.567-6.894-5.193-12.524-10.099-17.553-6.074-6.226-14.292-8.92-21.733-12.332-10.967-5.028-22.353-9.76-34.647-11.118-0.41-0.045-1.117-0.195-1.155-0.397-0.48-2.537-3.367-3.758-3.359-6.658 7e-3 -2.978-0.383-5.977-0.818-8.934-2.088-14.176-4.194-28.35-6.408-42.506-1.381-8.824-1.197-17.415 2.81-25.634 0.521-1.07 1.199-1.927 2.339-1.889 4.274 0.14 7.841-2.405 11.986-2.931 6.473-0.822 12.661-3.097 19.096-4.325 8.071-1.54 16.321-2.864 23.539-7.3 1.224-0.752 1.899-0.272 1.886 0.988-0.027 2.603 1.307 4.699 2.342 6.909 1.933 4.127 3.443 8.412 2.138 12.961-2.052 7.157-1.017 14.117 1.116 20.937 1.788 5.717 3.364 11.563 7.089 16.526 1.447 1.927 2.172 4.383 3.353 6.528 0.462 0.84 0.362 1.493 0.223 2.382-0.693 4.469-1.04 8.996-1.835 13.444-1.2 6.718 6e-3 13.054 2.103 19.418 1.007 3.055 1.821 6.111 3.751 8.748 3.242 4.432 4.044 9.278 3.293 14.751-0.697 5.077-2.311 10.026-2.093 15.253 0.124 2.967-0.972 6.153-0.234 8.894 1.798 6.674 3.872 13.463 7.943 19.093 2.342 3.241 2.101 6.544 2.118 9.793 0.032 6.242-1.599 12.434-1.069 18.808m-515.97-129.19c-1.01 0.307-2.179 0.133-3.342-0.046-7.454-1.144-14.659-3.436-22.128-4.615-6.173-0.974-11.923-3.702-17.835-5.756-7.979-2.772-16.511-3.486-24.63-6.208-5.68-1.904-11.113-4.844-17.2-5.579-0.749-0.091-1.488-0.748-1.43-1.504 0.034-0.429 0.823-0.992 1.374-1.16 5.631-1.712 10.826-4.52 16.303-6.548 15.586-5.77 30.946-12.161 46.324-18.39 13.77-5.578 27.91-9.817 41.912-14.506 10.987-3.679 21.909-7.649 33.223-10.468 7.922-1.974 15.819-4.322 23.751-6.213 13.703-3.267 26.959-7.885 40.415-11.891 3.407-1.015 4.228-0.643 4.403 2.933 0.189 3.832 1.082 7.569 1.417 11.366 0.178 2.016 1.617 4.091 0.065 6.156-2.883 3.836-6.43 7.096-10.02 10.158-3.877 3.308-7.902 6.534-12.047 9.492-3.642 2.599-6.968 5.539-10.307 8.434-2.369 2.054-5.577 3.08-7.39 5.474-2.174 2.87-5.232 4.527-7.892 6.558-4.116 3.141-7.964 6.616-12.156 9.672-4.742 3.458-9.147 7.353-14.025 10.683-2.933 2.003-6.158 3.588-8.826 6.163-1.805 1.742-4.094 3.33-6.596 4.495-5.907 2.751-12.09 1.927-18.196 1.951-5.002 0.019-10.006-0.412-15.167-0.651m253.72-118.3c-0.239-1.584 0.62-1.855 1.096-2.37 4.489-4.859 7.806-10.417 9.743-16.739 2.05-6.689 1.806-13.647 2.062-20.524 0.462-12.398 0.861-24.797 1.056-37.206 0.074-4.655-0.542-9.455 1-14.1 0.726-2.187 1.102-4.599 1.066-6.9-0.04-2.51 1.063-3.131 3.089-2.586 3.487 0.937 7.123 1.108 10.546 2.462 2.938 1.161 6.051 1.959 9.15 2.618 7.696 1.637 15.485 2.847 23.21 4.242 7.535 1.36 15.148 2.079 22.682 3.331 8.59 1.428 17.172 2.958 25.763 4.389 7.011 1.168 13.949 2.813 20.887 4.438 9.062 2.123 18.326 3.377 27.268 6.088 3.437 1.041 7.034 1.269 10.497 2.433 3.998 1.345 8.401 1.455 12.456 2.672 5.483 1.646 11.051 3.132 16.579 4.383 5.675 1.284 11.293 2.902 16.765 4.612 7.868 2.459 15.309 6.254 23.846 5.959 2.936-0.101 3.331 1.803 3.03 4.031-0.682 5.068-0.364 10.129-0.241 15.208 0.075 3.054 1.039 5.903 1.382 8.862 0.631 5.439 0.873 10.921 1.391 16.375 0.45 4.732 0.264 9.524-0.411 14.117-0.999 6.783-3.199 13.373-5.405 19.901-0.495 1.463-0.603 2.938-1.799 4.278-3.15 3.53-5.806 7.502-8.976 11.01-1.874 2.074-3.077 4.879-5.655 6.188-5.47 2.779-11.587 3.779-17.395 5.481-6.851 2.008-14.101 2.754-21.087 4.522-2.147 0.543-4.477 1.112-6.595 0.799-1.855-0.274-3.999 2.989-5.44-0.305-0.892-2.038-1.474-4.217-2.119-6.355-0.304-1.008-0.427-2.07-0.638-3.107-0.982-4.832-2.912-9.453-5.012-13.749-3.766-7.704-8.737-14.739-14.275-21.441-5.143-6.224-11.036-10.904-18.415-13.917-1.575-0.643-3.186-1.328-4.56-2.303-3.379-2.399-7.309-3.545-11.149-4.59-7.614-2.072-15.415-3.407-23.16-4.961-10.9-2.187-21.791-2.203-32.746-1.057-1.649 0.173-3.275 0.723-4.89 1.358-3.231 1.272-6.586 2.586-9.99 2.958-3.052 0.333-6.354 1.048-8.335 2.586-3.289 2.554-7.142 1.987-10.43 3.589-2.602 1.269-5.512 0.26-8.151 1.302-5.766 2.278-11.921-0.081-17.69 2.018m170.95 162.14c6.844 0.198 13.571 1.352 20.272 2.574 11.914 2.172 22.85 6.716 32.621 13.959 1.618 1.2 3.228 2.634 5.078 3.252 3.254 1.088 4.951 3.616 5.822 6.366 1.688 5.325 3.972 10.403 5.324 15.905 3 12.2 6.54 24.276 9.641 36.464 3.212 12.624 6.77 25.163 9.859 37.817 1.538 6.3 3.708 12.395 5.345 18.658 1.309 5.008 2.564 10.126 4.294 14.913 2.134 5.901 3.354 12.027 5.083 17.974 2.173 7.474 4.377 15.041 5.716 22.784 0.761 4.402 2.42 8.677 2.884 13.093 0.543 5.174 1.704 10.201 2.827 15.22 1.319 5.891 2.423 11.784 3.035 17.783 0.722 7.07 1.812 14.116 2.885 21.116 0.838 5.471 0.743 10.922 0.94 16.316 0.265 7.252-0.92 14.537-3.179 21.597-1.85 5.78-3.304 11.696-5.821 17.233-0.602 1.326-0.073 2.842-1.015 3.948-4.072 4.78-6.954 10.736-13.1 13.479-2.427 1.083-4.673 3.611-7.607 1.985-2.277-1.262-4.759-2.094-6.849-3.871-1.963-1.67-4.143-3.168-6.024-4.935-3.298-3.098-6.821-6.125-9.401-9.781-3.612-5.119-7.917-9.686-10.919-15.355-2.815-5.317-5.94-10.503-8.788-15.839-3.35-6.275-5.882-12.923-8.537-19.449-2.278-5.595-4.351-11.394-5.729-17.445-1.541-6.768-4.556-13.237-5.176-20.249-0.274-3.101-2.24-5.777-1.838-8.965 0.769-6.105 0.569-12.477 4.869-17.602 0.562-0.671 0.134-2.285 1.52-2.06 1.37 0.221 1.718 1.712 1.746 2.789 0.121 4.773 1.441 9.386 2.303 13.99 1.335 7.135 1.414 14.441 3.398 21.503 0.798 2.84 2.249 5.566 2.352 8.597 0.079 2.341 1.5 4.011 2.928 5.535 1.128 1.203 2.769 2.459 4.495 0.952 1.661-1.451 3.314-2.923 3.945-5.296 1.109-4.172-0.452-8.105-1.505-11.801-1.76-6.181-2.42-12.524-3.496-18.764-0.857-4.977-1.561-10.016-2.434-15.018-0.95-5.437-1.765-10.906-2.393-16.389-0.796-6.957-1.795-13.892-2.668-20.835-1.2-9.542-3.38-18.964-5.207-28.424-1.37-7.092-2.838-14.161-4.104-21.276-1.577-8.855-3.828-17.549-4.449-26.617-0.262-3.834 1.027-3.923 3.792-4.424 4.399-0.797 8.677-2.197 11.996-5.466 1.46-1.438 2.233-3.362 0.086-4.571-3.089-1.739-6.22-3.583-10.161-2.84-7.544 1.423-15.121 0.616-22.661-0.185-5.176-0.55-10.373-0.977-15.37-2.716-6.941-2.415-13.859-4.981-20.952-6.856-11.283-2.982-22.366-6.627-33.902-8.827-9.669-1.845-19.156-3.723-29.047-2.771-1.915 0.185-3.767 0.626-5.67 0.829-4.493 0.479-8.932 1.165-13.134 3.105-5.192 2.396-10.319 4.876-15.053 8.099-4.081 2.778-8.821 4.592-12.23 8.352-0.777 0.857-1.485 1.786-2.329 2.571-4.898 4.554-9.269 9.601-13.813 14.49-1.359 1.463-2.073 3.759-3.9 4.436-6.23 2.31-11.806 6.342-18.527 7.255-1.32 0.179-2.863 2.108-3.672 0.71-0.83-1.433 0.796-3.114 1.579-4.597 0.145-0.275 0.447-0.463 0.63-0.724 4.559-6.492 10.988-10.993 16.953-15.996 2.278-1.911 4.864-3.545 6.41-6.204 0.867-1.492 1.18-3.268-1.214-3.137-8.091 0.442-16.606-0.538-23.67 4.517-2.316 1.657-5.384 2.31-7.014 4.952-2.915 4.728-7.202 8.295-11.474 11.507-6.883 5.175-14.22 9.806-21.763 14.036-1.928 1.081-3.915 2.044-6.273 1.925-1.355-0.068-3.123 0.584-3.558-1.163-0.38-1.523 0.745-2.884 2.14-3.613 10.785-5.635 18.5-14.669 26.109-23.755 4.591-5.483 8.278-11.643 12.061-17.709 0.781-1.251 2.037-2.474 0.617-3.964-0.829-0.87-4.874-5e-3 -5.491 1.197-1.267 2.47-3.079 4.538-4.652 6.783-4.252 6.068-9.384 11.415-14.218 16.975-4.232 4.866-9.257 9.074-14.154 13.316-3.487 3.021-7.178 6.059-12.441 4.291-0.939-0.315-2.13-0.645-2.39-1.423-0.372-1.115 1.002-1.432 1.755-1.928 3.83-2.521 7.747-4.884 11.423-7.665 8.05-6.092 14.811-13.547 22.131-20.408 5.622-5.269 9.469-11.78 12.35-18.867 0.457-1.125 0.889-2.546-0.832-3.277-3.14-1.333-5.696-0.501-7.497 2.579-2.896 4.952-5.794 9.888-9.886 14-4.58 4.603-9.088 9.278-13.674 13.876-4.729 4.74-10.193 8.578-15.597 12.481-0.477 0.344-1.196 0.796-1.663 0.026-0.554-0.912 0.199-1.289 0.876-1.685 1.192-0.697 2.584-1.236 3.488-2.214 4.493-4.86 9.044-9.689 13.188-14.84 2.324-2.89 4.943-5.695 6.439-9.159 3.06-7.088 6.953-13.655 11.584-19.821 4.137-5.507 8.837-10.122 16.047-11.197 2.622-0.391 5.485-0.342 7.627-2.002 1.648-1.277 3.425-1.776 5.268-1.927 9.881-0.811 19.764-1.721 29.666-2.114 10.595-0.42 21.118-1.614 31.471-3.568 17.866-3.372 35.626-7.35 53.342-11.453 8.652-2.004 17.429-2.963 26.177-4.069 11.178-1.413 22.469-1.28 33.734-1.004m-144.12-151.88c6.072-1.999 11.502-3.379 16.797-5.056 10.246-3.246 20.447-5.623 31.246-5.8 7.077-0.116 13.983 0.918 20.892 1.921 6.933 1.008 13.666 3.039 20.388 5.068 3.986 1.204 7.897 2.288 11.555 4.457 11.173 6.626 20.311 15.192 26.207 26.86 3.07 6.075 4.928 12.459 5.452 19.437 0.389 5.179 0.462 10.358 0.074 15.415-0.454 5.925 0.435 11.775-0.087 17.726-0.447 5.107 1.067 10.524 2.444 15.607 1.093 4.03 0.202 8.655 3.403 12.112 0.462 0.498 0.03 1.31-0.377 1.768-1.385 1.557-2.64 3.355-4.327 4.493-5.501 3.712-11.246 7.003-16.433 11.244-7.269 5.943-16.588 7.859-25.015 11.488-6.863 2.955-14.187 4.794-21.102 7.743-2.012 0.857-4.307 1.449-6.802 1.246-3.151-0.257-6.362 0.43-9.373 1.594-1.371 0.529-1.847 2.193-3.558 2.534-7.102 1.415-14.208 2.897-21.067 5.256-4.852 1.669-10.072 1.219-14.922 2.932-1.511 0.534-3.383 1.268-5.176 0.193 0.205-0.351 0.272-0.642 0.417-0.687 11.624-3.676 20.514-12.156 31.067-17.739 6.509-3.444 12.455-8.079 17.567-13.334 3.629-3.729 7.744-7.041 10.052-12.315 4.61-10.533 9.5-20.949 13.48-31.741 0.813-2.203 1.754-4.974 0.252-7.247-1.611-2.438-4.535-1.874-7.024-2.102-0.941-0.086-2.412-0.209-2.522 0.823-0.335 3.151-2.513 5.442-3.434 8.237-1.009 3.058-1.569 6.355-2.619 9.35-2.671 7.622-5.588 15.209-10.88 21.59-2.801 3.377-6.016 6.532-9.434 8.94-4.125 2.906-8.71 5.208-12.64 8.528-2.406 2.032-5.196 3.51-8.23 4.57-2.87 1.003-5.75 2.139-8.374 3.652-9.313 5.37-19.508 8.946-29.641 11.724-9.333 2.559-19.514 3.54-29.368 0.674-4.301-1.251-9.013-1.768-12.82-3.9-8.925-4.997-16.405-12.147-24.781-18.001-0.512-0.358-0.95-0.876-1.301-1.401-1.779-2.654-4.476-4.503-7.121-5.724-8.155-3.764-14.232-10.322-21.569-15.144-4.141-2.722-7.166-6.653-10.667-10.054-2.989-2.903-6.036-5.798-8.304-9.413-2.376-3.787-4.329-7.722-6.176-11.804-4.156-9.188-6.98-18.694-8.743-28.582-1.153-6.463-2.673-12.864-3.72-19.343-0.661-4.092-1.87-7.977-3.19-11.867-0.894-2.635-0.041-4.056 2.418-4.462 11.183-1.845 22.232-0.896 32.839 2.781 7.227 2.506 13.884 0.581 20.214-1.764 4.107-1.521 8.25-2.765 12.435-3.68 9.579-2.093 19.23-3.946 28.927-5.384 7.784-1.155 15.69-1.635 23.559-0.557 7.285 0.999 14.34 3.054 21.473 4.784 12.987 3.15 25.177 7.961 36.25 15.502 0.686 0.467 1.545 0.754 2.365 0.938 3.476 0.779 4.17-2.282 5.637-4.216 1.344-1.772 0.119-2.745-1.144-3.952-6.288-6.003-13.949-9.377-22.007-12.229-4.169-1.476-8.464-2.409-13.462-3.689m-262.66 118.88c-0.146 1.915-0.999 2.951-2.726 3.612-3.452 1.322-6.802 3.146-9.421 5.631-3.096 2.937-6.567 5.363-9.776 8.124-5.774 4.966-10.022 11.001-14.025 17.374-2.211 3.518-4.964 6.819-7.989 9.67-3.164 2.982-7.208 4.925-10.707 7.589-1.62 1.233-2.501 3.195-4.58 3.989-2.697 1.029-2.195 3.324-1.235 5.346 0.995 2.095 1.864 4.417 5.121 3.642 4.561-1.084 9.103-1.986 13.249-4.46 8.029-4.792 15.239-10.71 19.961-18.631 2.621-4.397 5.364-8.633 8.516-12.585 2.254-2.827 3.385-6.549 6.55-8.602 2.864-1.858 5.73-3.864 8.87-5.114 7.755-3.086 14.01-7.854 18.851-14.664 1.223-1.72 1.719-3.759 3.854-5.186 6.916-4.624 14.102-8.877 20.482-14.307 5.285-4.498 10.85-8.67 16.298-12.977 8.378-6.624 16.772-13.226 25.134-19.871 1.41-1.121 2.541-3.13 4.064-3.441 1.955-0.4 2.426 2.323 3.759 3.467 0.243 0.209 0.483 0.435 0.761 0.586 5.344 2.906 10.789 5.643 16.004 8.763 2.798 1.673 6.334 1.968 8.122 5.649 7.917 16.301 21.458 27.717 34.925 39.112 5.449 4.61 12.516 6.978 17.512 12.272 3.223 3.414 6.241 7.047 9.674 10.234 5.297 4.918 11.549 8.401 18.304 10.966 0.765 0.29 1.864 0.429 1.929 1.329 0.063 0.863-0.846 1.562-1.601 1.846-4.452 1.671-8.226 4.567-12.357 6.808-5.423 2.942-11.166 5.03-16.967 6.89-3.69 1.183-7.782 2.233-11.534 1.837-5.772-0.61-11.433-2.419-17.081-3.944-1.228-0.332-3.42-0.542-3.398-2.085 0.041-2.776-1.66-2.949-3.494-3.057-3.101-0.183-6.683-1.73-8.348 2.766-0.218 0.588-1.42 0.878-2.217 1.167-0.845 0.306-1.407 0.815-1.965 1.522-1.846 2.34-4.068 4.205-6.698 5.724-4.098 2.369-8.657 3.521-12.908 5.412-6.23 2.77-12.998 3.627-19.308 6.082-2.601 1.012-5.621 0.887-8.443 1.494-4.25 0.914-8.49 2.111-12.785 2.583-4.448 0.489-8.806 1.418-13.131 2.32-8.554 1.786-16.9 4.598-25.472 6.264-8.64 1.679-16.989 4.486-25.676 5.964-5.113 0.869-10.015 3.082-15.136 3.768-4.069 0.546-7.903 1.866-11.705 2.973-5.751 1.675-11.651 2.745-17.36 4.635-5.817 1.926-12.187 2.289-17.867 4.491-6.739 2.613-13.723 3.972-20.675 5.293-8.932 1.696-17.901 3.28-26.996 4.23-8.165 0.854-16.248 2.1-24.505 1.863-7.844-0.225-15.489-1.248-22.711-4.426-6.629-2.916-13.587-4.615-19.709-9.282-7.562-5.764-11.415-13.751-16.469-21.098-1.072-1.559-1.311-3.295-1.453-5.149-0.245-3.184 0.914-6.519 0.432-9.35-0.95-5.589 0.074-11.026 4e-3 -16.502-0.09-7.045 3.257-13.579 5.721-19.997 2.436-6.345 4.704-12.95 8.583-18.719 2.335-3.473 3.286-7.58 4.941-11.361 2.653-6.061 6.39-11.506 9.268-17.431 1.185-2.441 2.208-5.604 5.38-6.193 3.334-0.62 6.746-0.559 10.155 0.194 9.139 2.019 18.527 2.047 27.78 3.208 8.447 1.06 16.92 1.792 25.259 3.655 5.289 1.182 10.349 3.22 15.614 4.305 10.55 2.175 20.894 5.104 31.205 8.111 8.643 2.521 17.405 3.966 26.317 4.926 8.575 0.924 17.157 1.007 25.829 0.746m491.09 371.39c-4.014 2.419-7.869 4.951-11.913 7.133-6.66 3.592-13.263 7.362-19.333 11.793-3.512 2.563-6.217 3.165-9.432 0.626-1.657-1.307-3.452-2.043-5.387-2.548-7.799-2.035-15.189-5.53-23.272-6.543-5.158-0.646-10.416-1.231-15.376-2.454-10.051-2.479-20.109-1.626-30.061-0.923-9.51 0.673-18.537 4.197-26.711 9.297-6.086 3.797-12.013 7.884-16.319 13.821-0.762 1.051-1.791 1.074-2.865 0.946-5.841-0.695-11.642-0.551-17.476 0.296-9.654 1.401-19.069-1.719-28.658-1.773-1.75-0.01-2.332-1.162-2.69-2.642-1.245-5.149-3.402-9.99-5.49-14.81-1.986-4.584-4.126-9.213-5.542-13.893-3.269-10.799-7.662-21.113-11.785-31.563-3.922-9.943-9.721-19.13-12.092-29.685-1.605-7.144-3.369-14.282-4.388-21.518-1.459-10.362-0.934-20.903-2.388-31.301-1.204-8.602-2.811-17.081-5.469-25.363-1.581-4.925-2.966-9.913-4.416-14.879-3.06-10.479-6.446-20.843-10.035-31.157-0.981-2.816-2.105-5.771-2.892-8.751-0.783-2.967-1.026-7.175-5.461-8.259-1.385-0.338-0.258-1.464 0.169-2.016 2.48-3.202 4.954-6.416 7.585-9.493 4.763-5.571 10.18-10.617 13.641-17.217 0.381-0.726 0.944-1.116 1.737-1.255 6.224-1.092 12.063-3.583 18.186-5.022 5.579-1.31 10.263-3.746 13.865-8.442 3.241-4.225 6.951-8.117 11.239-11.356 3.672-2.775 7.096-5.827 10.451-8.966 6.506-6.089 13.114-11.6 22.624-12.865 8.754-1.164 17.377-1.771 26.037-0.064 10.18 2.006 19.718 6.17 29.595 9.205 9.269 2.847 18.649 5.247 27.986 7.816 5.229 1.438 10.537 2.594 15.826 3.805 1.598 0.366 3.048 1.08 3.126 2.727 0.215 4.582 2.542 8.423 4.144 12.49 2.833 7.187 5.344 14.502 9.132 21.317 1.435 2.582 3.538 4.724 4.507 7.629 1.587 4.757 2.155 9.702 3.02 14.579 1.465 8.254 2.36 16.614 3.975 24.835 0.399 2.03 0.011 3.932 0.354 5.916 0.879 5.077 0.684 10.312 2.018 15.343 0.164 0.617 0.059 1.145-0.442 1.372-3.184 1.445-4.582 4.749-7.21 6.823-3.365 2.658-5.358 6.271-6.745 10.471-1.348 4.081-3.247 8.011-3.092 12.366 0.186 5.233-0.771 10.643 1.856 15.603 0.141 0.266 0.203 0.655 0.129 0.941-1.365 5.253 1.482 9.868 2.91 14.421 3.222 10.272 6.688 20.496 11.275 30.349 6.089 13.08 12.829 25.737 21.075 37.542 6.423 9.197 14.563 16.675 24.281 22.423 1.983 1.173 4.712 0.654 6.197 2.873m-701.07-299.07c2.34 2.349 1.821 5.724 3.048 8.531 3.711 8.486 8.158 16.401 14.832 22.936 1.522 1.49 2.583 3.354 4.053 4.932 7.542 8.089 17.48 10.966 27.753 13.231 4.227 0.932 8.394 2.285 12.667 2.824 6.657 0.838 13.388 1.034 20.107 0.813 4.25-0.14 8.535-0.162 12.733-0.745 9.806-1.361 19.576-2.982 29.347-4.587 9.997-1.641 19.521-5.064 29.17-7.992 9.762-2.962 19.427-6.247 29.216-9.111 5.5-1.609 11.241-2.396 16.739-4.012 8.069-2.371 16.213-4.441 24.397-6.319 10.592-2.431 21.062-5.339 31.607-7.942 10.823-2.67 21.767-4.308 32.751-5.871 3.587-0.51 7.218-0.744 10.823-1.106 4.57-0.46 8.761-1.738 12.816-3.768 6.09-3.047 12.96-4.349 18.628-8.365 2.873-2.036 5.914-3.841 8.738-5.94 1.61-1.197 2.833-1.256 4.858-0.646 7.398 2.228 14.102 6.54 21.963 7.331 2.565 0.258 5.112 0.342 7.556-0.725 1.941-0.848 3.583-0.59 5.276 0.881 4.03 3.505 8.583 6.307 13.071 9.186 0.916 0.588 1.867 1.1 0.907 2.491-0.764 1.107-0.987 2.645-2.992 2.025-6.14-1.9-12.601-1.921-18.868-3.097-2.972-0.558-5.929-0.432-6.924-4.708-0.685-2.943-4.365-3.884-7.149-4.93-6.085-2.286-12.419-2.842-18.896-2.525-1.967 0.096-2.934 1.582-4.429 2.295-3.795 1.809-7.462 3.718-10.26 7.25-2.356 2.973-5.896 4.974-8.595 7.717-2.414 2.454-5.451 4.133-7.66 6.891-1.148 1.434-3.109 2.517-4.814 3.489-3.106 1.771-5.279 4.503-7.887 6.782-3.312 2.894-6.731 5.667-9.996 8.612-1.802 1.625-3.707 3.235-5.305 4.965-2.606 2.822-4.833 2.728-8.071 1.331-12.377-5.338-25.263-7.093-38.757-5.738-4.802 0.482-9.034 2.104-13.312 3.759-1.885 0.73-3.721 2.579-4.714 4.393-1.641 2.998-3.958 5.564-5.144 8.885-1.098 3.073-2.11 6.094-1.96 9.356 0.109 2.384-0.514 4.058-2.926 4.969-8.236 3.111-10.492 13.178-8.288 20.916 1.69 5.931 2.71 12.21 5.572 17.576 2.309 4.327 1.13 6.598-1.374 10.008-3.894 5.303-7.203 11.071-12.552 15.076-5.254 3.933-9.761 8.678-14.337 13.272-3.301 3.315-6.992 6.157-10.514 9.092-3.636 3.028-7.157 6.444-11.492 8.608-2.002 0.999-3.27 2.83-4.572 4.378-2.942 3.498-6.56 6.354-9.166 10.188-1.575 2.317-3.768 4.277-5.921 6.119-1.724 1.475-1.938 3.239-1.779 5.18 0.288 3.508 2.715 4.769 5.876 3.064 2.758-1.488 5.06-3.591 7.266-5.776 8.899-8.815 18.461-16.855 28.494-24.335 4.048-3.018 7.861-6.274 11.158-10.093 4.938-5.723 11.473-9.566 17.001-14.593 2.767-2.516 5.697-4.851 8.546-7.276 2.566-2.184 3.419-5.154 3.298-8.313-0.172-4.495 1.791-6.783 6.361-6.464 2.963 0.206 5.914 0.781 8.829 1.387 0.989 0.205 2.157 0.793 2.726 1.58 3.954 5.475 10.125 5.453 15.725 5.893 17.336 1.365 34.72 2.023 52.104 2.63 8.619 0.301 17.224 1.153 25.821 1.913 12.361 1.092 24.754 0.812 37.134 0.964 4.837 0.059 9.065-1.746 12.513-5.464 8.142-8.776 15.382-18.266 22.847-27.598 3.901-4.877 7.795-9.856 12.347-14.245 9.157-8.829 17.298-18.569 25.035-28.652 0.806-1.051 1.428-2.333 2.811-2.831 0.437 0.59 0.309 1.093-0.052 1.53-3.489 4.234-3.774 8.858-1.367 13.606 1.122 2.214-0.806 3.036-1.661 3.98-6.173 6.813-11.614 14.231-17.682 21.123-4.426 5.026-9.027 9.9-13.419 14.955-2.679 3.082-4.82 6.673-7.714 9.516-5.115 5.023-9.433 10.723-14.315 15.926-1.177 1.255-1.596 2.945-2.961 4.091-0.994 0.834 0.146 1.714 0.646 2.471 0.759 1.15 1.857 1.015 2.845 0.492 2.366-1.254 4.652-2.633 6.283-4.864 1.117-1.529 1.791-2.112 2.869 0.342 4.485 10.215 8.587 20.579 12.499 31.019 3.33 8.89 6.545 17.824 9.741 26.764 2.951 8.252 5.682 16.59 8.628 24.832 3.203 8.958 5.242 18.291 9.171 27.035 1.384 3.079 2.254 6.588 3.271 9.927 1.407 4.618 2.991 9.253 5.174 13.536 1.341 2.631 1.714 5.445 2.678 8.109 3.454 9.551 8.051 18.561 12.528 27.608 4.27 8.631 9.51 16.711 17.116 22.943 1.695 1.389 3.711 2.115 5.685 2.907 2.639 1.058 4.529 2.604 4.93 5.645 0.494 3.742 2.776 5.235 6.521 5.615 9.906 1.006 19.785 2.217 29.772 1.801 11.046-0.46 22.011 1.075 33.028 1.336 2.647 0.063 3.906 2.269 5.726 3.618-0.668 1.193-1.621 0.675-2.38 0.682-13.808 0.123-27.567-1.558-41.388-1.097-3.722 0.124-4.117 0.639-2.511 4.067 1.007 2.15 2.386 4.056 3.95 5.823 0.953 1.077 1.075 1.875 0.336 3.353-1.674 3.35-2.57 6.984-0.519 10.587 0.664 1.166 0.331 1.566-0.758 2.156-2.779 1.504-5.128 3.549-7.363 5.826-3.408 3.472-4.249 8.207-6.502 12.238-3.088 5.526-4.801 11.718-7.509 17.473-1.442 3.065-2.143 6.679-2.338 10.093-0.57 9.96-1.629 19.935-0.25 29.93 0.215 1.558-0.196 3.269-1.436 4.445-1.536 1.457-1.353 3.154-0.462 4.606 0.996 1.621 0.687 3.11 0.129 4.568-1.394 3.647-2.248 7.41-2.727 11.262-0.22 1.766-1.503 1.103-2.432 1.221-1.622 0.208-4.063-0.584-4.515 1.288-0.443 1.832 1.16 3.862 3.026 4.475 5.188 1.706 5.192 6.32 6.24 10.357 0.742 2.856 0.904 5.869 2.331 8.534 0.643 1.201 1.145 2.735 3.01 2.119 1.79-0.591 3.513-1.488 3.369-3.718-0.272-4.204-0.573-8.42-1.2-12.58-0.217-1.442 0.533-1.287 1.237-1.621 2.197-1.045 4.735-1.432 6.47-3.376 0.963-1.079 1.767-2.262 1.359-3.747-0.401-1.459-1.93-1.033-2.959-1.442-0.194-0.077-0.433-0.038-0.63-0.109-2.022-0.736-5.177 1.053-6.009-1.098-0.662-1.71 0.428-4.322 0.61-6.558 0.147-1.794 0.636-3.559 0.964-5.339 0.659-3.584 2.763-5.157 6.285-4.092 2.51 0.76 4.126 6e-3 4.903-2.112 0.905-2.468-0.799-3.723-2.949-4.411-1.624-0.518-3.347-1.592-4.875-1.372-3.635 0.524-4.148-1.996-4.084-4.178 0.356-12.157-1-24.636 3.706-36.197 3.862-9.488 7.281-19.462 15.791-26.276 4.271-3.421 9.192-4.784 14.538-5.031 11.655-0.539 22.479 3.098 33.369 6.514 6.14 1.926 11.9 4.691 17.651 7.486 1.686 0.819 3.033 0.728 4.429-0.386 1.932-1.543 1.867-2.844-0.221-4.15-3.908-2.447-8.221-4.052-12.5-5.637-1.72-0.637-2.905-1.932-4.641-2.6-2.881-1.109-5.926-1.977-8.618-3.731-1.745-1.137-1.548-1.951-0.517-3.169 2.848-3.365 5.15-7.023 6.558-11.242 2.063-6.178 3.825-12.302 1.775-18.924-0.582-1.882-1.847-2.95-3.146-3.77-2.031-1.282-4.359-2.398-6.698-2.816-2.868-0.514-2.746-1.303-0.961-2.983 4.416-4.157 9.543-7.228 15.155-9.396 14.996-5.791 30.736-6.14 46.396-5.026 11.023 0.784 21.825 3.627 31.841 8.71 0.946 0.48 1.893 0.99 2.748 1.612 1.659 1.207 2.238 2.109-3e-3 3.745-4.047 2.954-5.934 7.415-6.367 12.303-0.25 2.81-1.209 4.371-3.972 5.356-4.468 1.594-6.746 5.536-8.639 9.571-2.373 5.058-1.028 10.324-0.655 15.556 0.179 2.521 9e-3 4.874-2.599 6.886-4.491 3.465-5.537 8.735-5.036 14.166 0.395 4.284 1.199 8.532 1.871 12.789 0.511 3.232 2.009 6.02 4.131 8.474-0.374 1.425-2.143 0.613-2.679 1.942-0.46 1.14-1.358 0.564-1.954-0.226-3.612-4.793-8.746-5.694-14.274-5.545-1.882 0.051-4.06 0.507-4.671 2.188-0.701 1.93 0.669 3.938 1.976 5.475 1.334 1.568 2.973 0.673 4.384-0.089 1.5-0.809 2.976-1.102 4.61-0.503 3.424 1.256 3.426 1.78 1.044 4.456-5.753 6.46-10.156 13.569-11.875 22.337-0.671 3.426-0.226 6.758-0.743 10.096-0.081 0.519 0.14 1.198-0.501 1.279-2.909 0.364-2.487 2.756-2.864 4.616-0.674 3.317-1.643 6.544-1.802 10.005-0.108 2.361-2.747 3.629-4.066 5.532-3.12 4.5-7.265 7.991-11.369 11.536-2.51 2.167-5.626 1.993-8.477 2.114-6.706 0.285-12.927 2.313-17.033 7.318-3.355 4.088-6.924 8.461-7.826 14.319-0.371 2.403-1.699 4.897-2.524 7.389-1.874 5.662-1.112 11.499-1.378 17.246-0.08 1.734-0.712 3.341-0.476 5.09-1.127-3.693-1.656-7.472-1.405-11.192 0.463-6.878 0.441-13.812 2.631-20.534 1.242-3.81 3.198-6.903 6.058-9.565 0.782-0.728 1.515-1.512 2.233-2.304 0.788-0.869 1.749-1.773 1.248-3.079-0.55-1.435-1.903-1.433-3.227-1.56-4.356-0.419-8.676-1.172-12.786 1.303-3.337 2.01-5.899 4.992-7.644 8.109-2.203 3.934-6.072 6.69-7.355 11.189-0.709 2.489-1.749 4.884-2.756 7.642-0.949-1.619-0.624-3.147-0.328-4.564 0.743-3.55 1.316-7.243 3.135-10.376 1.164-2.007-0.853-4.414 1.266-6.041 0.064-0.049-0.215-0.753-0.288-0.745-2.947 0.335-4.475-3.03-7.399-2.798-1.703 0.135-3.444 0.242-5.131 0.043-5.841-0.69-8.523 3.399-11.088 7.398-1.641 2.559-3.625 4.867-3.51 8.518 0.112 3.542-0.563 7.357 0.195 10.692 2.12 9.324 4.016 18.826 9.804 26.889 2.284 3.181 4.185 6.637 6.453 10.277-2.679 0.524-3.773-1.712-4.724-2.977-5.101-6.792-9.747-13.822-12.753-21.942-1.699-4.589-2.376-9.258-3.234-13.94-0.907-4.954 0.409-9.657 2.616-14.067 1.68-3.357 0.826-5.127-2.896-5.385-7.428-0.513-10.68 2.271-12.161 9.795-1.501 7.629-0.334 14.667 2.536 21.905 3.896 9.826 10.409 17.517 17.594 24.868 0.447 0.457 0.878 0.937 1.261 1.448 0.173 0.233 0.209 0.568 0.458 1.299-3.322-0.966-5.71-2.794-7.661-5.097-5.148-6.081-10.27-12.19-13.865-19.398-1.52-3.046-2.645-6.212-3.479-9.494-0.445-1.753-0.511-3.689-1.322-5.243-1.931-3.7 0.198-7.263 0.049-10.889-0.08-1.931 0.877-3.911 1.409-5.857 0.496-1.813 1.698-3.765-0.202-5.327-2.673-2.197-5.541-3.966-9.16-1.771-8.351 5.065-9.719 9.56-8.152 19.237 0.691 4.266 1.414 8.512 2.147 12.761 0.855 4.956 3.244 9.156 5.66 13.08 6.127 9.948 14.346 18.182 23.378 25.655 4.244 3.511 9.339 5.158 13.963 7.802 4.416 2.526 8.622 5.395 13.825 6.454 2.259 0.46 4.144 2.558 6.315 3.69 6.309 3.292 12.64 6.596 19.371 8.924 5.394 1.865 11.187 1.376 16.777 2.107 9.495 1.241 18.862 0.119 27.815-2.535 10.296-3.051 20.362-6.983 29.393-13.175 8.772-6.014 17.114-12.426 23.639-20.936 0.452-0.59 0.837-1.231 1.271-1.835 1.516-2.108 2.886-4.234 5.779-4.902 2.527-0.583 4.612-2.3 6.413-4.117 5.262-5.306 12.002-9.044 16.5-15.096 5.213-7.013 8.706-14.757 8.099-23.816-0.284-4.241 1.864-8.061 2.113-12.216 0.024-0.405 0.626-0.828 1.035-1.148 6.398-5.01 10.492-11.794 13.325-19.123 1.535-3.97 2.491-8.509 1.619-13.042-0.304-1.579-0.021-3.085 0.597-4.664 1.491-3.805 1.829-7.895 1.893-11.929 0.036-2.242 0.49-3.652 2.505-4.934 8.161-5.192 14.106-12.71 19.925-20.202 2.635-3.392 3.699-7.848 5.117-11.966 0.85-2.47 3.137-4.523 1.786-7.671-0.403-0.94 0.563-2.308 1.836-3.075 9.858-5.937 17.21-14.27 22.586-24.34 2.693-5.042 4.399-10.267 3.92-16.319-0.268-3.387-0.291-6.894-0.509-10.341-0.104-1.641 0.509-2.755 1.665-3.901 7.114-7.056 10.739-15.646 11.307-25.655 0.179-3.153 1.193-6.257 0.56-9.467-0.232-1.18 0.516-1.727 1.391-2.243 4.559-2.688 7.826-6.67 10.362-11.161 1.254-2.221 2.329-4.704 2.506-7.392 0.196-2.967 2.05-4.259 4.77-4.434 1.605-0.103 3.103-0.378 4.666-0.816 1.963-0.551 3.139 1.039 4.17 2.598 0.757 1.146 1.263 2.844 3.353 2.126 2.144-0.736 2.582-2.228 2.408-4.275-0.473-5.55-2.795-10.263-5.817-14.877-2.565-3.916-5.627-6.842-9.859-8.853-3.257-1.547-5.175-4.872-6.862-7.764-4.04-6.922-9.816-9.507-17.461-8.852-0.845 0.073-1.691 0.359-2.561-0.137 0.206-1.453 1.27-1.732 2.496-1.873 6.346-0.73 12.847-1.364 18.634-4.007 8.784-4.011 17.514-9.399 19.733-19.273 1.445-6.431 2.099-13.778-0.35-20.668-0.801-2.252-0.31-4.967-1.122-7.212-1.579-4.361-2.64-8.916-3.532-13.356-0.838-4.177-1.734-8.5-1.926-12.825-0.239-5.394-2.466-10.242-3.817-15.329-1.559-5.87-3.31-11.694-4.973-17.529-2.491-8.74-1.823-17.981-4.457-26.52-2.513-8.149-2.848-16.562-4.64-24.77-1.515-6.934-2.067-14.077-3.522-21.027-0.866-4.134-2.191-8.19-3.012-12.357-0.66-3.354-0.085-6.766-1.064-10.179-1.883-6.56-3.806-13.223-4.527-19.969-0.695-6.501-1.381-13.097-3.019-19.283-1.275-4.814-1.177-9.715-2.539-14.494-1.689-5.925-1.981-12.242-2.951-18.378-1.091-6.904-2.449-13.771-3.354-20.698-0.959-7.34-2.673-14.537-3.845-21.838-1.198-7.462-2.595-14.878-3.606-22.385-0.519-3.85-1.334-7.854-2.649-11.723-1.073-3.158-1.22-6.833-1.974-10.242-1.464-6.617-1.655-13.478-3.246-20.005-1.28-5.248-1.983-10.601-3.099-15.856-0.992-4.672-0.918-9.639-2.031-14.412-1.994-8.552-3.903-17.083-6.762-25.446-1.467-4.293-5.03-7.16-6.079-11.559-0.293-1.231-1.933-2.356-3.332-3.271-5.803-3.796-11.968-6.658-18.772-8.062-1.944-0.402-2.752-2.117-2.722-3.479 0.11-5.005-0.35-9.931-0.978-14.878-0.378-2.976 1.819-5.691 1.197-8.776-0.563-2.792 0.209-5.439 0.894-8.119 0.378-1.48 1.169-2.399 2.406-3.194 2.579-1.656 4.539-3.876 5.68-6.773 1.743-4.426 0.181-8.697-4.368-9.88-3.623-0.942-7.53-1.631-11.285 0.306-3.09 1.593-4.753 3.816-4.301 7.402 0.114 0.9 0.511 2.067-0.686 2.518-0.935 0.353-1.928 1e-3 -2.623-0.747-0.596-0.643-1.189-1.163-2.079-1.396-1.459-0.381-1.234-1.287-0.429-2.123 1.737-1.805 1.694-4.079 1.735-6.316 0.059-3.199-1.545-5.507-4.691-5.857-3.641-0.405-7.455-2.355-10.947 1.045-1.085 1.056-1.481-0.915-1.544-1.607-0.378-4.146-3.26-5.386-6.697-5.958-1.892-0.314-3.868-0.198-5.726-0.625-3.67-0.844-5.336 1.749-7.246 3.939-0.579 0.663-0.72 1.633-0.269 2.433 1.677 2.982 0.347 2.986-2.061 2.23-2.404-0.755-4.963-1.014-7.452-2.246 0.433-0.527 0.681-1.075 1.101-1.302 4.289-2.318 2.378-6.19 2.215-9.485-0.049-0.972-1.542-1.903-2.43-2.796-2.072-2.084-11.649-2.258-13.648-0.142-0.758 0.803-1.973 1.75-1.616 2.985 0.744 2.569-0.544 5.187 0.988 8.518-5.346-3.149-10.705-2.951-15.67-4.409-1.441-0.423-1.649-1.128-0.671-2.264 0.415-0.482 0.871-0.998 1.08-1.58 2.594-7.229 0.656-9.577-6.913-11.042-2.882-0.558-5.722 0.53-8.582 0.817-3.27 0.329-2.495 3.322-2.715 5.315-0.163 1.487 0.302 3.153 1.517 4.936-6.152-1.249-11.847-2.324-17.496-3.599-1.938-0.438-0.739-1.601-0.115-2.353 2.381-2.869 3.082-6.267 3.292-9.855 0.103-1.758-0.461-3.051-2.015-4.037-6.285-3.991-12.751-3.492-19.334-0.948-1.144 0.442-1.752 1.526-1.756 2.509-0.013 3.446-2.69 7.137 0.76 10.594-4.567-0.667-9.135-1.335-14.001-2.046 1.49-2.232 2.702-4.15 3.324-6.482 1.56-5.844 0.059-8.66-5.825-10.084-1.658-0.401-3.38-0.606-4.976-1.174-4.377-1.56-7.559 0.928-10.041 3.621-2.6 2.821-2.473 6.465 0.082 9.687 0.465 0.587 0.986 1.299 0.608 2.043-0.528 1.041-1.526 0.439-2.288 0.335-2.433-0.333-4.845-0.826-7.279-1.153-2.322-0.311-4.661-0.492-7.339-0.766 4.267-6.154 7.895-12.26 0.627-18.499-2.256-1.936-11.538-2.341-13.945-0.366-3.839 3.148-6.585 6.408-1.904 16.249-4.969 0.591-9.209-2.419-14.696-2.479 3.919-4.569 0.933-7.56-1.5-10.994-2.542-3.587-5.488-5.813-9.985-5.651-0.53 0.019-1.072-0.037-1.593-0.134-7.156-1.34-11.325 2.583-10.241 9.77 0.389 2.577-0.762 4.876-1.473 7.066-1.64 5.053-3.759 9.955-4.862 15.187-0.265 1.258-1.055 1.345-1.832 0.707-3.714-3.045-8.818-2.876-12.688-5.66-2.435-1.751-5.672-1.537-8.507-2.448-7.169-2.306-14.628-3.755-22.144-4.307-7.509-0.551-15.098-1.361-22.545 0.859-1.101 0.328-2.336 0.347-3.5 0.3-4.804-0.19-9.061 1.929-13.482 3.245-2.423 0.721-4.852 0.439-7.271 0.884-6.921 1.272-13.448 4.07-20.637 4.503-4.149 0.249-8.276 2.288-12.381 3.445-6.236 1.756-12.142 5.038-18.858 4.948-2.797-0.037-5.083 1.521-7.504 2.476-5.18 2.043-10.48 3.38-15.977 4.026-4.575 0.538-8.602 2.644-12.737 4.418-0.879 0.377-1.64 0.949-2.66 0.902-4.594-0.212-8.353 1.832-11.828 4.517-0.752 0.581-1.5 0.713-2.357 0.779-2.229 0.172-4.563 0.099-5.891 2.468-0.133 0.237-0.525 0.475-0.791 0.47-4.894-0.104-8.722 3.287-13.367 4.065-1.587 0.265-3.409 0.548-4.341 2.367-0.243 0.474-0.987 0.89-1.553 0.971-7.864 1.114-14.437 6.115-22.248 7.354-1.328 0.211-2.444 0.876-3.407 1.689-5.278 4.461-12.424 4.613-18.167 7.957-3.83 2.23-8.008 3.759-12.006 5.571-4.785 2.167-9.418 4.898-14.735 5.926-2.329 0.45-3.925 2.591-6.374 3.335-5.422 1.646-10.7 3.668-15.546 6.875-2.652 1.755-6.024 2.59-9.074 3.737-6.553 2.466-12.052 6.904-18.559 9.331-9.348 3.486-18.162 8.23-27.441 11.792-7.871 3.021-15.415 6.483-22.66 10.759-4.161 2.456-8.772 4.086-12.218 7.759-2.481 2.645-4.206 5.357-5.508 8.918-1.624 4.441-1.303 9.028-2.67 13.359-1.385 4.389-0.323 8.917-0.832 13.344-0.795 6.919 0.865 13.669 1.142 20.487 0.233 5.739 0.994 11.287 2.165 16.849 0.404 1.921-0.657 3.566-1.607 5.017-4.028 6.156-7.782 12.461-11.229 18.961-3.353 6.322-6.239 13.013-10.424 18.744-5.871 8.04-7.857 17.448-11.372 26.354-1.923 4.872-1.405 9.727-2.065 14.581-0.692 5.097-4e-3 10.346-1.698 15.309z"/>
</g>
<g transform="translate(614.37 596.96)">
<path d="m0 0c3.827 0.52 10.209 0.609 16.589 0.321 8.509-0.383 17.024-0.743 25.512-1.43 6.369-0.516 12.77-0.162 19.103-0.788 6.757-0.668 13.604-0.184 20.299-1.865 2.517-0.632 5.281-0.282 7.933-0.376 0.641-0.023 1.316 0.095 1.916-0.068 1.947-0.53 3.994-1.618 4.024-3.615 0.034-2.177-2.461-1.577-3.861-1.798-3.611-0.569-7.108 0.821-10.734 0.932-12.958 0.4-25.884 1.467-38.846 1.971-9.33 0.364-18.65 1.348-27.992 0.922-9.148-0.417-18.314-0.295-27.443-1.546-5.585-0.765-11.084-2.012-16.685-2.596-0.79-0.082-2.25-0.665-2.413 0.663-0.139 1.132 0.69 2.285 1.894 2.739 3.593 1.353 7.128 3.023 10.846 3.843 5.691 1.255 11.441 2.439 19.858 2.691"/>
</g>
<g transform="translate(567.42 591.53)">
<path d="m0 0c-3.805-0.978-5.587 2.399-7.935 4.016-7.705 5.303-15.206 10.937-22.478 16.825-5.993 4.852-12.427 9.07-18.546 13.729-1.542 1.174-2.573 2.776-3.906 4.113-6.045 6.069-13.488 10.322-20 15.769-1.031 0.862-1.853 1.332-1.138 2.744 0.727 1.434 1.98 1.504 3.287 1.261 0.605-0.112 1.148-0.537 1.729-0.798 7.979-3.583 14.74-8.892 21.362-14.527 13.008-11.069 26.313-21.786 40.369-31.517 3.177-2.199 6.172-4.582 8.963-7.236 0.98-0.932 2.54-1.82 1.983-3.36-0.614-1.694-2.448-0.724-3.69-1.019"/>
</g>
<g transform="translate(851.07 899.31)">
<path d="m0 0c-0.217-8.906-2.023-14.876-4.528-20.679-0.331-0.766-0.529-1.61-0.663-2.438-1.131-6.996-1.123-6.999 5.657-9.201 1.88-0.611 3.031-2.083 3.781-3.721 0.884-1.93-0.709-2.392-2.131-2.641-5.403-0.948-11.96 2.011-14.484 6.657-0.727 1.339-0.394 2.892 0.092 4.36 1.997 6.031 4.185 12.014 5.843 18.138 1.3 4.799 1.309 9.566-2.307 13.811-1.461 1.715-2.066 4.156-3.081 6.257-0.65 1.343 0.029 2.127 1.006 2.97 1.042 0.899 1.975 0.71 2.879-5e-3 5.173-4.087 7.476-9.607 7.936-13.508"/>
</g>
<g transform="translate(873.18 919.03)">
<path d="m0 0c-2.567 0-5.342-0.056-8.114 0.017-2.47 0.065-2.55 1.29-1.395 3.102 1.245 1.956 3.379 2.162 5.282 2.677 10.636 2.88 20.446 0.803 29.539-5.186 0.795-0.524 1.53-1.169 2.194-1.854 0.994-1.023 2.774-1.871 1.954-3.627-0.758-1.624-2.593-1.077-4.04-1.229-1.681-0.176-3.148 0.359-4.543 1.213-6.353 3.89-13.164 5.874-20.877 4.887"/>
</g>
<g transform="translate(882.75 892.38)">
<path d="m0 0c-5.987 0.101-10.396 1.104-14.478 3.32-3.445 1.87-4.039 6.969-1.139 9.018 0.774 0.547 1.239 0.875 2.074-0.099 4.41-5.151 10.143-4.576 15.932-3.417 1.559 0.312 3.102 0.812 4.574 1.416 3.166 1.297 5.248-0.74 7.43-2.343 0.695-0.51 0.978-1.448 3e-3 -2.163-4.692-3.44-9.636-6.189-14.396-5.732"/>
</g>
<g transform="translate(856.02 855.5)">
<path d="m0 0c1.76 0.249 4.092 0.475 6.375 0.945 1.128 0.232 2.108 0.177 3.089-0.32 1.151-0.583 2.435-1.164 2.509-2.65 0.066-1.348-1.088-2.15-2.075-2.615-5.685-2.677-11.546-3.079-17.514-0.948-0.739 0.264-0.88 0.929-0.748 1.58 0.303 1.495 0.767 3.008 2.434 3.46 1.736 0.47 3.491 1.086 5.93 0.548"/>
</g>
<g transform="translate(504.03 629.07)">
<path d="m0 0c-0.896-0.326-1.471 0.448-2.108 0.962-5.155 4.161-10.06 8.606-14.851 13.179-0.826 0.789-2.015 1.615-0.808 2.906 1.12 1.198 2.231 0.302 3.098-0.411 5.351-4.403 10.668-8.847 15.946-13.337 0.677-0.576 1.628-1.347 1.144-2.424-0.397-0.884-1.501-0.611-2.421-0.875"/>
</g>
<g transform="translate(495.66 624.86)">
<path d="m0 0c-2.052 0.271-3.682 1.758-4.873 3.192-3.401 4.094-7.778 7.272-10.779 11.74-0.593 0.883-1.277 1.375-0.419 2.359 0.872 1 1.794 0.607 2.509-0.09 5.032-4.904 10.215-9.66 14.83-14.976 0.403-0.464 0.974-1.008 0.591-1.683-0.358-0.632-1.131-0.413-1.859-0.542"/>
</g>
<g transform="translate(977.95 879.34)">
<path d="m0 0c-8.34-0.653-13.648 3.37-14.956 9.518-2.06 9.686 0.25 18.793 7.216 26.27 4.038 4.335 8.419 8.151 14.641 9.096 3.194 0.485 6.342 0.815 9.337-0.582 7.487-3.49 11.258-9.255 12.273-17.641 1.013-8.378-3.669-13.317-8.633-18.572-5.437-5.756-12.278-7.789-19.878-8.089"/>
</g>
</g>
</g>
</svg>