<svg width="368" height="298" viewBox="26.708 1.29 316.231 296.388" fill="none" xmlns="http://www.w3.org/2000/svg">
    <path d="m87.724 107.608-56.57 34.911a6.056 6.056 0 0 0-1.974 8.334l29.307 47.488a6.056 6.056 0 0 0 8.334 1.974l56.571-34.912a6.056 6.056 0 0 0 1.973-8.334l-29.307-47.488a6.055 6.055 0 0 0-8.334-1.973Z" style="fill:#000"/>
    <path d="m49.03 183.114 7.088-16.921 22.922-.737 8.137-28.182 27.624 2.823 8.529 13.918 2.508 4.014.502 3.512-1.505 3.01-58.699 36.123-4.013.501-3.01-2.007-10.083-16.054Z" fill="#fff"/>
    <path d="m87.724 107.608-56.57 34.911a6.056 6.056 0 0 0-1.974 8.334l29.307 47.488a6.056 6.056 0 0 0 8.334 1.974l56.571-34.912a6.056 6.056 0 0 0 1.973-8.334l-29.307-47.488a6.055 6.055 0 0 0-8.334-1.973Z" stroke="#000" stroke-width="1.2" stroke-linecap="round" stroke-linejoin="round"/>
    <path d="m328.291 164.655-120.399 74.306a10.566 10.566 0 0 1-14.529-3.441l-77.275-125.198 138.181-85.747 77.48 125.536a10.577 10.577 0 0 1-3.458 14.544v0Z" fill="#fff" stroke="#000" stroke-width="1.2" stroke-linecap="round" stroke-linejoin="round"/> -->
    <path d="m270.716 88.577-56.655 34.963a6.067 6.067 0 0 0-1.977 8.35l29.35 47.559a6.067 6.067 0 0 0 8.35 1.977l56.655-34.963a6.067 6.067 0 0 0 1.977-8.35l-29.35-47.56a6.068 6.068 0 0 0-8.35-1.976Z" style="fill-opacity:.75;fill:#fff"/>
    <path d="m235.096 166.981 9.076-18.79 27.996-2.31 6.407-27.102 26.041 2.46 13.101 17.557v9.931l-67.978 38.346-14.643-20.092Z" stroke="#fff" stroke-width="1.2" stroke-linecap="round" stroke-linejoin="round" style="fill-rule:nonzero;paint-order:fill;fill:#000"/>
    <path d="m270.716 88.577-56.655 34.963a6.067 6.067 0 0 0-1.977 8.35l29.35 47.559a6.067 6.067 0 0 0 8.35 1.977l56.655-34.963a6.067 6.067 0 0 0 1.977-8.35l-29.35-47.56a6.068 6.068 0 0 0-8.35-1.976Z" stroke="#000" stroke-width="1.2" stroke-linecap="round" stroke-linejoin="round"/>
    <path d="m130.704 177.25-56.57 34.911a6.056 6.056 0 0 0-1.974 8.334l29.307 47.489a6.056 6.056 0 0 0 8.334 1.973l56.57-34.912a6.056 6.056 0 0 0 1.974-8.334l-29.307-47.488a6.056 6.056 0 0 0-8.334-1.973Z" fill="#fff" stroke="#000" stroke-width="1.2" stroke-linecap="round" stroke-linejoin="round"/>
    <path d="M277.002 123.995s-7.282-.343-19.28 3.344c-6.848 2.105-8.279-.099-5.803-2.654 2.476-2.555 6.982-4.526 6.982-4.526l-5.705-14.95-11.165 2.038s0-5.386 11.264-7.254c9.462-1.577 23.458-.395 23.458-.395l13.133 10.444-12.884 13.953Z" stroke="#000" stroke-width="1.2" stroke-linecap="round" stroke-linejoin="round" style="fill:transparent"/>
    <path d="M134.142 185.811a27.055 27.055 0 0 0 2.385 4.936l3.111 5.063-.221.563-2.618 1.668-.627.024c-1.771-2.471-2.881-3.874-3.327-4.211-.839-.589-2.022-.494-3.549.284-.594.292-3.214 1.92-7.861 4.885l-5.563 3.548c.389.734 2.134 3.532 5.236 8.394l10.865 17.04c3.036 4.76 5.193 7.746 6.47 8.958.507.488 1.213.558 2.117.209.466-.187 2.148-1.119 5.047-2.796l.607.036 1.281 2.006-.22.568c-2.821 1.625-7.121 4.281-12.901 7.968-5.921 3.777-10.145 6.555-12.671 8.335l-.544-.032-1.301-2.042.224-.564c2.745-1.918 4.299-3.051 4.665-3.398.701-.671.935-1.339.701-2.007-.557-1.672-2.353-4.888-5.389-9.648l-10.87-17.04c-3.154-4.938-4.968-7.692-5.441-8.259l-5.937 3.785c-4.952 3.154-7.774 5.107-8.465 5.858-.294.284-.51.64-.623 1.033-.047.479.153 1.251.6 2.319a30.213 30.213 0 0 0 1.71 3.508l-.22.564-2.618 1.668h-.647l-3.355-5.074a30.578 30.578 0 0 0-3.347-4.156l.181-.536c1.761-.841 7.775-4.535 18.041-11.082l16.808-10.716c9.462-6.046 15.348-9.94 17.659-11.682l.607.023ZM193.214 121.283l-.107.394c-4.095 2.365-6.563 3.811-7.404 4.337a329.935 329.935 0 0 0-9.253 5.839l-.395-.079-.883-1.447.122-.418 2.303-1.577c.975-.66 1.294-1.264.958-1.814-.197-.318-.891-.88-2.082-1.687l-5.169-3.493a662.961 662.961 0 0 0-7.727 4.656 762.825 762.825 0 0 0-6.308 3.915l.508 3.548c.387 2.681.744 4.29 1.073 4.826.355.58.993.666 1.912.249.513-.229 1.478-.735 2.898-1.518l.414.063.895 1.47-.13.395c-3.417 1.963-5.612 3.24-6.585 3.832-.749.452-2.569 1.625-5.46 3.52l-.394-.039-.911-1.49.162-.414c1.817-1.238 2.759-2.251 2.878-3.052.118-.8-.241-4.964-1.021-12.51l-2.023-19.318c-.181-1.483-.444-3.724-.788-6.723l3.875-2.365 31.935 19.776c1.23.741 2.113 1.042 2.65.903a11.154 11.154 0 0 0 2.759-1.309l.395.102.903 1.428Zm-24.839-1.775-13.184-8.452 1.743 15.439c1.522-.862 3.474-2.023 5.858-3.482a220.912 220.912 0 0 0 5.571-3.505h.012Z" fill="#000"/>
    <path d="M91.088 203.376s-11.114-20.758-13.353-28.155c-2.263-7.491-1.124-8.405.272-7.845 1.786.717 5.914 10.424 5.914 10.424l10.132-3.694s-6.395-14.249-3.942-16.165c2.803-2.216 11.508 18.392 11.508 18.392s-2.784-15.262-1.053-15.936c2.626-1.021 4.641 6.395 6.352 11.079 2.208 6.048 7.191 17.154 7.191 17.154l-3.394 18.53-19.627-3.784Z" style="fill:#fff"/>
    <path d="M78.921 168.211c-2.058 3.75 1.242 13.181 1.242 13.181s-4.628-10.862-3.706-12.684c1.388-2.76 2.464-.497 2.464-.497ZM91.975 158.962c-1.427 1.325.982 12.017.982 12.017s-3.986-9.49-3.394-11.615c.59-2.125 2.412-.402 2.412-.402Z" fill="#fff"/>
    <path d="M91.088 203.376s-11.114-20.758-13.353-28.155c-2.263-7.491-1.124-8.405.272-7.845 1.786.717 5.914 10.424 5.914 10.424l10.132-3.694s-6.395-14.249-3.942-16.165c2.803-2.216 11.508 18.392 11.508 18.392s-2.784-15.262-1.053-15.936c2.626-1.021 4.641 6.395 6.352 11.079 2.208 6.048 7.191 17.154 7.191 17.154l-3.394 18.53-19.627-3.784Z" stroke="#000" stroke-width="1.2" stroke-linecap="round" stroke-linejoin="round"/>
    <path d="M269.625 189.214s25.146-11.706 35.133-28.915c8.366-14.414-1.16-24.555-6.805-28.631-8.852-6.395-20.951-7.673-20.951-7.673s.981-8.066.981-13.673a52.011 52.011 0 0 0-1.23-10.74s24.594-.05 44.903 13.425c28.039 18.609 30.89 67.868-16.902 108.075-17.939 15.092-36.016 24.791-54.014 32.755-17.998 7.964-60.2 15.348-100.627 1.774-40.427-13.574-59.02-52.235-59.02-52.235s6.197.591 13.574-4.132c7.376-4.724 9.462-10.622 9.462-10.622s7.097 19.772 41.61 32.46c34.514 12.687 66.693-10.917 66.693-10.917l47.193-20.951Z" fill="#fff"/>
    <path d="M147.491 254.681s51.065 12.73 95.92-5.859c44.855-18.589 70.623-41.681 86.414-64.501 14.5-20.967 10.992-41.819 10.992-41.819s13.854 45.048-47.706 87.636c-61.56 42.588-90.522 33.145-106.584 34.324-16.062 1.179-39.036-9.781-39.036-9.781Z" style="fill:#000;fill-opacity:.81"/>
    <path d="M279.97 124.468s16.228-1.742 25.024 8.091c8.796 9.832 1.246 24.838 1.246 24.838s6.733-13.416-5.24-22.386c-9.442-7.771-21.03-10.543-21.03-10.543Z" style="fill:rgba(0,0,0,.8)"/>
    <path d="M269.625 189.214s25.146-11.706 35.133-28.915c8.366-14.414-1.16-24.555-6.805-28.631-8.852-6.395-20.951-7.673-20.951-7.673s.981-8.066.981-13.673a52.011 52.011 0 0 0-1.23-10.74s24.594-.05 44.903 13.425c28.039 18.609 30.89 67.868-16.902 108.075-17.939 15.092-36.016 24.791-54.014 32.755-17.998 7.964-60.2 15.348-100.627 1.774-40.427-13.574-59.02-52.235-59.02-52.235s6.197.591 13.574-4.132c7.376-4.724 9.462-10.622 9.462-10.622s7.097 19.772 41.61 32.46c34.514 12.687 66.693-10.917 66.693-10.917l47.193-20.951Z" stroke="#000" stroke-width="1.2" stroke-linecap="round" stroke-linejoin="round"/>
    <path d="M248.954 296.922s-4.274-3.679-3.465-10.772c.662-5.827 4.281-8.524 4.281-8.524s-2.732 5.871.217 10.295c2.949 4.423 6.935 3.986 6.935 3.986s-9.738-7.097 5.015-28.919c14.753-21.823 22.725-37.479 15.053-66.693-7.672-29.215-36.3-48.396-53.71-48.1-17.411.296-26.557 12.687-23.9 26.262 2.657 13.574 10.03 22.429 19.476 38.069 9.447 15.641 5.607 59.608 12.392 72.887 6.785 13.279 17.706 11.509 17.706 11.509Z" fill="#000"/>
    <path d="M84.67 180.875s-5.039-12.056-5.642-15.419c-.603-3.363 1.033-6.1 4.77-.686 3.738 5.413 5.804 12.983 5.804 12.983" style="fill:#fff"/>
    <path d="M82.02 162.621s-1.14-.394-1.182 2.149c-.044 2.542 2.026 11.674 2.026 11.674s-4.443-10.366-3.943-12.317c.501-1.952-.244-2.563 1.242-2.559 1.487.004 1.857 1.053 1.857 1.053Z" fill="#fff"/>
    <path d="M84.67 180.875s-5.039-12.056-5.642-15.419c-.603-3.363 1.033-6.1 4.77-.686 3.738 5.413 5.804 12.983 5.804 12.983" stroke="#000" stroke-width="1.2" stroke-linecap="round" stroke-linejoin="round"/>
    <path d="M89.614 178.048s-5.15-11.95-5.737-15.293c-.587-3.343 1.112-5.52 4.85-.103 3.737 5.418 5.803 12.987 5.803 12.987" style="fill:#fff"/>
    <path d="M86.22 160.291c-1.672.69.603 11 .603 11s-3.403-6.971-3.06-9.723c.343-2.752 2.232-1.896 2.5-1.687.268.209-.044.41-.044.41Z" fill="#fff"/>
    <path d="M89.614 178.048s-5.15-11.95-5.737-15.293c-.587-3.343 1.112-5.52 4.85-.103 3.737 5.418 5.803 12.987 5.803 12.987" stroke="#000" stroke-width="1.2" stroke-linecap="round" stroke-linejoin="round"/>
    <path d="M87.177 188.327s6.935.075 15.199-6.935Z" style="fill-opacity:.8;fill:rgba(0,0,0,.8)"/>
    <path d="M87.177 188.327s6.935.075 15.199-6.935" stroke="#000" stroke-width="1.2" stroke-linecap="round" stroke-linejoin="round"/>
    <path d="M256.788 103.486s-18.668 2.141-18.668 6.048c0 4.112 16.823 1.403 16.823 1.403" style="fill:#fff"/>
    <path d="M246.044 105.37s-3.102.947-4.995 3.576c-.717.994-.295 2.543-.295 2.543s-3.703-.145-2.634-2.286c1.068-2.141 7.924-3.833 7.924-3.833Z" fill="#fff"/>
    <path d="M256.788 103.486s-18.668 2.141-18.668 6.048c0 4.112 16.823 1.403 16.823 1.403" stroke="#000" stroke-width="1.2" stroke-linecap="round" stroke-linejoin="round"/>
    <path d="M257.892 108.651s-18.664 2.14-18.664 6.048c0 5.519 18.826 1.033 18.826 1.033" style="fill:#fff"/>
    <path d="M247.771 110.385s-3.24 1.037-5.255 3.292c-2.015 2.256-1.266 3.277-1.266 3.277s-3.635-1.246-1.577-3.277c2.058-2.03 8.098-3.292 8.098-3.292Z" fill="#fff"/>
    <path d="M257.892 108.651s-18.664 2.14-18.664 6.048c0 5.519 18.826 1.033 18.826 1.033" stroke="#000" stroke-width="1.2" stroke-linecap="round" stroke-linejoin="round"/>
    <path d="M258.416 114.837s-8.335.528-13.405 2.077c-5.07 1.55-4.057 4.424-2.216 4.795 1.842.37 21.543-.813 21.543-.813" style="fill:#fff"/>
    <path d="M249.77 115.842s-6.702 3.43-6.608 5.204c.095 1.774-3.154.836-1.904-1.478 1.25-2.315 8.512-3.726 8.512-3.726Z" fill="#fff"/>
    <path d="M258.416 114.837s-8.335.528-13.405 2.077c-5.07 1.55-4.057 4.424-2.216 4.795 1.842.37 21.543-.813 21.543-.813M263.542 99.224s.788 11.579 1.577 15.613" stroke="#000" stroke-width="1.2" stroke-linecap="round" stroke-linejoin="round"/> -->
    <path d="m254.257 24.575-138.169 85.747-11.039-17.9a10.571 10.571 0 0 1 3.442-14.543L228.874 3.572a10.578 10.578 0 0 1 14.548 3.446l10.835 17.557Z" stroke="#000" stroke-width="1.2" stroke-linecap="round" stroke-linejoin="round" style="fill:#000"/>
    <path d="M115.174 205.962a3.284 3.284 0 1 0 0-6.567 3.284 3.284 0 0 0 0 6.567ZM285.36 121.582a2.803 2.803 0 1 0 0-5.606 2.803 2.803 0 0 0 0 5.606Z" fill="#000"/>
    <path d="M48.74 158.962a7.377 7.377 0 1 0 0-14.754 7.377 7.377 0 0 0 0 14.754Z" fill="#fff"/>
    <path d="M234.181 142.506a9.403 9.403 0 1 0 0-18.806 9.403 9.403 0 0 0 0 18.806Z" style="fill:#000"/>
    <path d="M232.155 25.355a5.314 5.314 0 1 0 0-10.628 5.314 5.314 0 0 0 0 10.628Z" fill="#fff" stroke="#000" stroke-width="1.2" stroke-linecap="round" stroke-linejoin="round"/>
    <path d="M219.014 33.22a5.314 5.314 0 1 0 0-10.628 5.314 5.314 0 0 0 0 10.629ZM205.862 41.528a5.314 5.314 0 1 0 0-10.628 5.314 5.314 0 0 0 0 10.628ZM253.055 45.984l-67.738 42.212 4.771 7.656 67.737-42.213-4.77-7.655Z" fill="#000" stroke="#000" stroke-width="1.2" stroke-linecap="round" stroke-linejoin="round"/>
    <path d="m194.408 101.889 57.432-35.751M197.168 107.082l57.858-36.052M200.279 111.943l40.108-24.685M160.703 158.887l27.894-16.385M163.613 164.036l27.893-16.381M166.416 169.02l40.222-24.452M169.676 173.763l27.89-16.386M172.586 178.912l27.894-16.382M176.351 184.321l27.894-16.386M179.261 189.47l27.894-16.381M297.862 158.852l-32.763 20.221M290.616 170.25l-27.252 16.815" stroke="#000" stroke-width="1.2" stroke-linecap="round" stroke-linejoin="round"/>
</svg>
